<svg width="48" height="48" viewBox="0 0 48 48" fill="none" xmlns="http://www.w3.org/2000/svg">
<rect width="48" height="48" rx="24" fill="white"/>
<path d="M33 22C33.2652 22 33.5196 21.8946 33.7071 21.7071C33.8946 21.5195 34 21.2652 34 21V18C33.9998 17.7902 33.9337 17.5857 33.8109 17.4156C33.6882 17.2455 33.515 17.1183 33.316 17.052L24.316 14.052C24.1109 13.9837 23.8891 13.9837 23.684 14.052L14.684 17.052C14.485 17.1183 14.3118 17.2455 14.189 17.4156C14.0663 17.5857 14.0002 17.7902 14 18V21C14 21.2652 14.1054 21.5195 14.2929 21.7071C14.4804 21.8946 14.7348 22 15 22H16V29.184C15.4167 29.3894 14.9113 29.7704 14.5532 30.2746C14.1951 30.7788 14.0018 31.3815 14 32V34C14 34.2652 14.1054 34.5195 14.2929 34.7071C14.4804 34.8946 14.7348 35 15 35H33C33.2652 35 33.5196 34.8946 33.7071 34.7071C33.8946 34.5195 34 34.2652 34 34V32C33.9982 31.3815 33.8049 30.7788 33.4468 30.2746C33.0887 29.7704 32.5833 29.3894 32 29.184V22H33ZM32 33H16V32C16 31.7348 16.1054 31.4804 16.2929 31.2929C16.4804 31.1053 16.7348 31 17 31H31C31.2652 31 31.5196 31.1053 31.7071 31.2929C31.8946 31.4804 32 31.7348 32 32V33ZM18 29V22H20V29H18ZM22 29V22H26V29H22ZM28 29V22H30V29H28ZM16 20V18.72L24 16.054L32 18.721V20H16Z" fill="white"/>
<path d="M24 14.9062L23.6715 15.0705L16.1723 18.75L15.75 18.9608V20.25H32.25V18.9608L31.8278 18.75L24.3278 15.0705L24 14.9062ZM24 16.5938L28.4062 18.75H19.5938L24 16.5938ZM17.25 21V28.5H16.5V30H31.5V28.5H30.75V21H29.25V28.5H27.75V21H26.25V28.5H24.75V21H23.25V28.5H21.75V21H20.25V28.5H18.75V21H17.25ZM15 30.75V32.25H33V30.75H15Z" fill="white"/>
<path d="M38.0147 19.6733V25.822M16.356 22.55V30.8447C16.356 30.8447 19.5627 34 24 34C28.438 34 31.6447 30.8447 31.6447 30.8447V22.55M9.98535 19.6L24 14L38.0147 19.6L24 25.2L9.98535 19.6Z" stroke="#EA2029" stroke-opacity="0.8" stroke-width="1.5" stroke-linecap="round" stroke-linejoin="round"/>
</svg>
