<svg width="48" height="48" viewBox="0 0 48 48" fill="none" xmlns="http://www.w3.org/2000/svg">
<rect width="48" height="48" rx="24" fill="white"/>
<path d="M32.1429 21.1429V31.1429C32.1429 31.9006 31.8418 32.6273 31.306 33.1632C30.7702 33.699 30.0435 34 29.2857 34H17.8571C17.0994 34 16.3727 33.699 15.8368 33.1632C15.301 32.6273 15 31.9006 15 31.1429V16.8571C15 16.0994 15.301 15.3727 15.8368 14.8368C16.3727 14.301 17.0994 14 17.8571 14H25M32.1429 21.1429L25 14M32.1429 21.1429H27.8571C27.0994 21.1429 26.3727 20.8418 25.8368 20.306C25.301 19.7702 25 19.0435 25 18.2857V14M17.8571 24H25M17.8571 26.8571H27.8571M17.8571 29.7143H22.1429" stroke="#EA2029" stroke-opacity="0.8" stroke-width="1.5" stroke-linecap="round" stroke-linejoin="round"/>
</svg>
