<svg width="48" height="48" viewBox="0 0 48 48" fill="none" xmlns="http://www.w3.org/2000/svg">
<rect width="48" height="48" rx="24" fill="white"/>
<path d="M34.1783 21.6975C35.3261 21.2686 35.4295 19.2141 34.4105 17.1096C33.3905 15.0062 31.6349 13.6495 30.4882 14.0795M34.1783 21.6975C33.0316 22.1275 31.2771 20.7708 30.2571 18.6674C29.2382 16.5629 29.3415 14.5095 30.4882 14.0795M34.1783 21.6975L17.5124 31.6977C16.3657 32.1277 14.6101 30.771 13.5901 28.6677C12.5711 26.5632 12.6745 24.5087 13.8212 24.0787L30.4882 14.0795M27.3337 25.7854C25.8203 25.1487 22.8036 22.8331 22.8414 18.6674M23.4447 28.1121C22.148 27.4932 19.4446 25.1976 19.0002 20.9653M27.8115 26.222C28.476 27.4776 29.1549 30.791 26.8337 34L25.737 32.4266L22.8892 33.7889C22.8892 33.7889 24.917 31.6522 23.9481 28.4443" stroke="#EA2029" stroke-opacity="0.8" stroke-width="1.5" stroke-linecap="round" stroke-linejoin="round"/>
</svg>
